<svg width="57" height="20" viewBox="0 0 57 20" fill="none" xmlns="http://www.w3.org/2000/svg">
<path d="M22.7031 0H5.27943C3.9284 0 3.06326 1.43994 3.69546 2.637L5.43829 5.94563H2.27873C2.07863 5.94569 1.88195 5.99755 1.70772 6.0962C1.53349 6.19484 1.38763 6.33693 1.28426 6.50868C1.18088 6.68044 1.12351 6.87604 1.11768 7.07656C1.11185 7.27707 1.15778 7.47569 1.251 7.65319L6.85689 18.2904C6.95571 18.4775 7.10353 18.634 7.28444 18.7433C7.46534 18.8524 7.67252 18.9101 7.88368 18.9101C8.09483 18.9101 8.30201 18.8524 8.48292 18.7433C8.66383 18.634 8.81164 18.4775 8.91046 18.2904L10.4329 15.4171L12.343 19.0424C13.0153 20.3174 14.8364 20.3198 15.511 19.0461L24.2442 2.57021C24.8615 1.4049 24.0192 0 22.7031 0ZM14.8764 7.03948L11.1108 14.1453C11.045 14.2696 10.9466 14.3738 10.8262 14.4464C10.7059 14.519 10.5681 14.5573 10.4276 14.5573C10.2871 14.5573 10.1493 14.519 10.0289 14.4464C9.90857 14.3738 9.8102 14.2696 9.74438 14.1453L6.01504 7.06937C5.95272 6.95139 5.92183 6.81928 5.92537 6.68583C5.92892 6.55237 5.96678 6.42209 6.03529 6.3076C6.10379 6.19313 6.20062 6.09832 6.31641 6.03237C6.43219 5.96642 6.56299 5.93155 6.69616 5.93115H14.2121C14.3419 5.93115 14.4696 5.96484 14.5826 6.02894C14.6956 6.09304 14.7902 6.18535 14.857 6.29693C14.9239 6.40849 14.9608 6.53552 14.9642 6.66563C14.9677 6.79576 14.9374 6.92454 14.8764 7.03948Z" fill="#808080"/>
<path d="M41.6976 7.41528H39.6489V13.9429C39.6487 14.0023 39.6233 14.0594 39.578 14.1014C39.5328 14.1435 39.4715 14.1672 39.4075 14.1673H37.8274C37.7635 14.1672 37.7021 14.1435 37.657 14.1014C37.6117 14.0594 37.5862 14.0023 37.5861 13.9429V7.41528H35.5253C35.4942 7.41646 35.4632 7.41184 35.4342 7.40168C35.4051 7.39153 35.3785 7.37605 35.356 7.35617C35.3335 7.33628 35.3156 7.31238 35.3031 7.28592C35.2908 7.25944 35.2842 7.23092 35.2839 7.20205V6.04746C35.2842 6.01859 35.2908 5.99007 35.3031 5.96359C35.3156 5.93713 35.3335 5.91323 35.356 5.89334C35.3785 5.87346 35.4051 5.85798 35.4342 5.84783C35.4632 5.83767 35.4942 5.83305 35.5253 5.83423H41.6972C41.7611 5.83144 41.8237 5.8523 41.8711 5.89226C41.9187 5.9322 41.9473 5.988 41.9506 6.04746V7.20251C41.9471 7.26179 41.9186 7.3174 41.8711 7.35725C41.8238 7.39709 41.7615 7.41794 41.6976 7.41528Z" fill="#808080"/>
<path d="M47.5687 14.025C47.1922 14.0796 46.559 14.1673 45.3974 14.1673C44.0098 14.1673 42.7839 13.8059 42.7839 11.8135V8.17688C42.7839 6.18446 44.0209 5.83398 45.408 5.83398C46.5693 5.83398 47.1922 5.92171 47.5687 5.97627C47.7192 5.99808 47.7839 6.05309 47.7839 6.19538V7.21498C47.7838 7.27306 47.7611 7.32872 47.7207 7.36978C47.6805 7.41084 47.6257 7.43397 47.5687 7.43409H45.3008C44.7954 7.43409 44.6127 7.6091 44.6127 8.17869V9.17512H47.4829C47.54 9.17524 47.5947 9.19837 47.635 9.23943C47.6753 9.28049 47.698 9.33615 47.6981 9.39423V10.4343C47.698 10.4924 47.6753 10.548 47.635 10.5891C47.5947 10.6302 47.54 10.6533 47.4829 10.6534H44.6127V11.8139C44.6127 12.3831 44.7954 12.5585 45.3008 12.5585H47.5687C47.6257 12.5586 47.6805 12.5817 47.7207 12.6228C47.7611 12.664 47.7838 12.7196 47.7839 12.7776V13.7959C47.7839 13.9373 47.7192 14.0032 47.5687 14.025Z" fill="#808080"/>
<path d="M55.9674 14.165H54.1353C53.9856 14.165 53.9162 14.1184 53.8359 13.9969L52.2474 11.5432L50.8081 13.9429C50.7272 14.0774 50.6468 14.1673 50.5209 14.1673H48.8158C48.7004 14.1673 48.6429 14.0998 48.6429 14.0216C48.6452 13.9941 48.653 13.9674 48.666 13.9429L51.1621 9.89295L48.6401 6.04735C48.6273 6.02683 48.6195 6.00376 48.6172 5.97986C48.6213 5.93866 48.6415 5.90059 48.6736 5.87348C48.7058 5.84637 48.7474 5.83229 48.7899 5.83415H50.6449C50.7717 5.83415 50.864 5.94634 50.932 6.04735L52.4061 8.31207L53.833 6.04735C53.8904 5.94634 53.9943 5.83415 54.1201 5.83415H55.8253C55.8678 5.83229 55.9094 5.84637 55.9415 5.87348C55.9737 5.90059 55.9939 5.93866 55.9981 5.97986C55.9957 6.00376 55.9879 6.02683 55.9751 6.04735L53.4655 9.91668L56.0827 13.9429C56.1032 13.9771 56.115 14.0156 56.1172 14.0551C56.1177 14.1202 56.0598 14.165 55.9674 14.165Z" fill="#808080"/>
<path d="M32.6731 5.83537C32.6327 5.83547 32.5937 5.84933 32.5626 5.87457C32.5315 5.89982 32.5103 5.9349 32.5024 5.97384L30.8641 11.9462C30.8415 12.0685 30.8078 12.1129 30.7061 12.1129C30.6044 12.1129 30.5706 12.0667 30.5482 11.9462L28.9078 5.97245C28.9001 5.93352 28.8787 5.89843 28.8476 5.87318C28.8165 5.84794 28.7775 5.83408 28.7373 5.83398H27.1247C27.0983 5.83401 27.0725 5.83986 27.0489 5.85111C27.0252 5.86235 27.0045 5.8787 26.9882 5.89893C26.9719 5.91916 26.9605 5.94276 26.9547 5.96794C26.949 5.99315 26.949 6.0193 26.955 6.04446C26.955 6.04446 28.9561 12.8938 28.9782 12.9613C29.2453 13.7773 29.8935 14.1673 30.7182 14.1673C31.5037 14.1673 32.1894 13.7589 32.4575 12.9636C32.4894 12.8712 34.446 6.04401 34.446 6.04401C34.4519 6.01887 34.4519 5.99276 34.4461 5.96762C34.4402 5.94248 34.4288 5.91896 34.4125 5.89879C34.3962 5.87862 34.3755 5.86231 34.352 5.85109C34.3284 5.83988 34.3025 5.83402 34.2763 5.83398L32.6731 5.83537Z" fill="#808080"/>
<path d="M22.7031 0H5.27943C3.9284 0 3.06326 1.43994 3.69546 2.637L5.43829 5.94563H2.27873C2.07863 5.94569 1.88195 5.99755 1.70772 6.0962C1.53349 6.19484 1.38763 6.33693 1.28426 6.50868C1.18088 6.68044 1.12351 6.87604 1.11768 7.07656C1.11185 7.27707 1.15778 7.47569 1.251 7.65319L6.85689 18.2904C6.95571 18.4775 7.10353 18.634 7.28444 18.7433C7.46534 18.8524 7.67252 18.9101 7.88368 18.9101C8.09483 18.9101 8.30201 18.8524 8.48292 18.7433C8.66383 18.634 8.81164 18.4775 8.91046 18.2904L10.4329 15.4171L12.343 19.0424C13.0153 20.3174 14.8364 20.3198 15.511 19.0461L24.2442 2.57021C24.8615 1.4049 24.0192 0 22.7031 0ZM14.8764 7.03948L11.1108 14.1453C11.045 14.2696 10.9466 14.3738 10.8262 14.4464C10.7059 14.519 10.5681 14.5573 10.4276 14.5573C10.2871 14.5573 10.1493 14.519 10.0289 14.4464C9.90857 14.3738 9.8102 14.2696 9.74438 14.1453L6.01504 7.06937C5.95272 6.95139 5.92183 6.81928 5.92537 6.68583C5.92892 6.55237 5.96678 6.42209 6.03529 6.3076C6.10379 6.19313 6.20062 6.09832 6.31641 6.03237C6.43219 5.96642 6.56299 5.93155 6.69616 5.93115H14.2121C14.3419 5.93115 14.4696 5.96484 14.5826 6.02894C14.6956 6.09304 14.7902 6.18535 14.857 6.29693C14.9239 6.40849 14.9608 6.53552 14.9642 6.66563C14.9677 6.79576 14.9374 6.92454 14.8764 7.03948Z" fill="#808080"/>
</svg>
