<svg width="58" height="20" viewBox="0 0 58 20" fill="none" xmlns="http://www.w3.org/2000/svg">
<g clip-path="url(#clip0_16038_4272)">
<path d="M26.0083 16.0834C25.9632 16.3901 25.8796 16.6782 25.7581 16.9489C25.6411 17.2197 25.4674 17.4563 25.2372 17.6589C25.0076 17.857 24.7144 18.0152 24.3581 18.1322C24.0018 18.2493 23.5645 18.3078 23.0462 18.3078H22.8025C22.4552 18.3078 22.1124 18.2969 21.7748 18.2737C21.4411 18.2512 21.1189 18.2171 20.8076 18.1721L21.443 13.648C21.7677 13.5985 22.1009 13.5625 22.4436 13.5399C22.7864 13.5174 23.1311 13.5059 23.4784 13.5059H23.7221C24.2404 13.5059 24.6623 13.5644 24.9864 13.6814C25.3105 13.7985 25.5613 13.9586 25.7369 14.1618C25.9124 14.3605 26.0211 14.5946 26.0616 14.8653C26.1067 15.1361 26.1067 15.4242 26.0616 15.7309L26.0076 16.0827L26.0083 16.0834ZM22.9858 17.2396C23.3915 17.2396 23.7163 17.2055 23.9594 17.138C24.2031 17.066 24.3903 16.9579 24.5208 16.8133C24.6513 16.6647 24.7375 16.4821 24.778 16.2653C24.8185 16.0448 24.8391 15.785 24.8391 15.4879C24.8391 15.3573 24.8185 15.2377 24.778 15.1297C24.742 15.0171 24.67 14.92 24.562 14.839C24.4539 14.7579 24.3028 14.6949 24.1092 14.6493C23.9195 14.6043 23.6719 14.5817 23.3652 14.5817C23.2481 14.5817 23.1169 14.5837 22.9729 14.5882C22.8288 14.5927 22.6796 14.5997 22.5266 14.6088L22.1613 17.2126C22.3144 17.2216 22.461 17.228 22.6005 17.2332C22.7401 17.2383 22.8687 17.2403 22.9858 17.2403V17.2396Z" fill="#808080"/>
<path d="M26.9997 14.7935L26.5264 18.1749H27.608L28.0138 15.2669L27.2698 14.7935H26.999H26.9997ZM27.1013 13.6103C27.1238 13.4707 27.1804 13.3511 27.2704 13.2521C27.365 13.153 27.5251 13.1035 27.7502 13.1035H27.8042C28.0293 13.1035 28.1759 13.153 28.2434 13.2521C28.3154 13.3511 28.3405 13.4707 28.318 13.6103L28.3045 13.6913C28.282 13.8308 28.2235 13.9505 28.1289 14.0495C28.0389 14.1485 27.8807 14.198 27.6556 14.198H27.6016C27.3759 14.198 27.2273 14.1485 27.1553 14.0495C27.0878 13.9505 27.0653 13.8308 27.0878 13.6913L27.1013 13.6103Z" fill="#808080"/>
<path d="M32.5298 18.5129C32.4938 18.7566 32.4263 18.9701 32.3272 19.1553C32.2327 19.3405 32.0951 19.4936 31.915 19.6151C31.7349 19.7412 31.5092 19.8357 31.2385 19.8994C30.9722 19.9669 30.6501 20.001 30.2713 20.001C30.1407 20.001 30.0031 19.9965 29.8591 19.9875C29.7195 19.983 29.5774 19.9714 29.4333 19.9534C29.2938 19.9399 29.1562 19.9219 29.0211 19.8994C28.8861 19.8814 28.762 19.8589 28.6494 19.8319L28.7915 18.8177C28.9041 18.8537 29.0256 18.8833 29.1568 18.9058C29.2919 18.9328 29.4295 18.9534 29.569 18.9669C29.7131 18.9849 29.8533 18.9984 29.9883 19.0074C30.1279 19.0164 30.2591 19.0209 30.3806 19.0209C30.6198 19.0209 30.8063 19.0049 30.942 18.9733C31.0816 18.9463 31.1877 18.9058 31.2597 18.8518C31.3317 18.7978 31.3812 18.7303 31.4083 18.6492C31.4353 18.5727 31.4558 18.4827 31.4693 18.3785L31.5034 18.1553C31.3324 18.2049 31.1587 18.2434 30.9825 18.2704C30.807 18.2975 30.6198 18.311 30.4211 18.311C30.0423 18.311 29.7337 18.2659 29.4951 18.1759C29.261 18.0904 29.0803 17.9708 28.9542 17.8177C28.8282 17.6647 28.7491 17.4865 28.7176 17.2833C28.6861 17.0762 28.6886 16.855 28.7247 16.6209L28.7652 16.3502C28.8012 16.1155 28.8623 15.8968 28.9478 15.6942C29.0378 15.4872 29.1665 15.3065 29.333 15.1534C29.5041 15.0003 29.7208 14.8807 29.9819 14.7952C30.2436 14.7052 30.5658 14.6602 30.9491 14.6602H31.1382C31.5169 14.6602 31.823 14.7052 32.0578 14.7952C32.297 14.8807 32.4771 15.0003 32.5986 15.1534C32.7247 15.3065 32.8038 15.4872 32.8353 15.6942C32.8668 15.8968 32.8668 16.1161 32.8353 16.3502L32.5311 18.5142L32.5298 18.5129ZM30.623 17.3296C30.9838 17.3296 31.3195 17.282 31.6308 17.1875L31.7324 16.484C31.7459 16.3759 31.7549 16.2698 31.7594 16.1663C31.7639 16.0627 31.7414 15.9727 31.6919 15.8955C31.6468 15.819 31.5632 15.7579 31.4417 15.7129C31.3202 15.6634 31.142 15.6383 30.9073 15.6383C30.6726 15.6383 30.4745 15.6634 30.3259 15.7129C30.1819 15.7624 30.0693 15.8344 29.9877 15.9296C29.9112 16.0241 29.8591 16.1393 29.832 16.2743C29.8095 16.4094 29.798 16.565 29.798 16.7412C29.798 16.8222 29.807 16.8987 29.825 16.9714C29.8475 17.0389 29.888 17.1 29.9465 17.154C30.0095 17.2081 30.0951 17.2512 30.2038 17.2827C30.3118 17.3142 30.452 17.3303 30.623 17.3303V17.3296Z" fill="#808080"/>
<path d="M34.0524 14.7935L33.5791 18.1749H34.6608L35.0666 15.2669L34.3225 14.7935H34.0518H34.0524ZM34.154 13.6103C34.1765 13.4707 34.2331 13.3511 34.3232 13.2521C34.4177 13.153 34.5778 13.1035 34.8035 13.1035H34.8576C35.0833 13.1035 35.2293 13.153 35.2968 13.2521C35.3688 13.3511 35.3939 13.4707 35.3714 13.6103L35.3579 13.6913C35.3354 13.8308 35.2769 13.9505 35.1823 14.0495C35.0923 14.1485 34.9347 14.198 34.709 14.198H34.655C34.4293 14.198 34.2807 14.1485 34.2087 14.0495C34.1412 13.9505 34.1187 13.8308 34.1412 13.6913L34.1547 13.6103H34.154Z" fill="#808080"/>
<path d="M37.1007 14.7938H38.1418L38.0068 15.7404H36.9586L36.81 16.8228C36.801 16.8993 36.7965 16.9668 36.7965 17.0253C36.7965 17.0839 36.8145 17.1334 36.8505 17.1739C36.891 17.2144 36.9521 17.2459 37.0332 17.2684C37.1142 17.2864 37.2312 17.2954 37.3849 17.2954C37.4885 17.2954 37.5965 17.2909 37.7097 17.2819C37.8267 17.2684 37.9303 17.2478 38.0209 17.2208L37.8859 18.208C37.7914 18.2305 37.6833 18.2466 37.5611 18.2556C37.4441 18.2691 37.3225 18.2761 37.1959 18.2761C36.8891 18.2761 36.6344 18.2466 36.4319 18.188C36.2287 18.1295 36.0692 18.0459 35.9515 17.9379C35.8344 17.8253 35.7579 17.6877 35.7213 17.5257C35.6852 17.3591 35.6833 17.1694 35.7148 16.9578L36.2087 13.4414H36.4795L37.2235 13.9147L37.102 14.7938H37.1007Z" fill="#808080"/>
<path d="M42.6468 18.1733H42.3761L41.7947 17.808C41.6912 17.8981 41.5876 17.9746 41.4835 18.0383C41.3799 18.1013 41.2719 18.1534 41.1587 18.1939C41.0462 18.2344 40.9266 18.264 40.8005 18.282C40.679 18.3 40.5439 18.309 40.3947 18.309C40.052 18.309 39.7684 18.264 39.5426 18.174C39.3214 18.0884 39.1503 17.9688 39.0288 17.8158C38.9073 17.6627 38.8282 17.4846 38.7921 17.2814C38.7561 17.0743 38.7561 16.8531 38.7921 16.619L38.8327 16.3482C38.8687 16.1135 38.9298 15.8949 39.0153 15.6923C39.1053 15.4852 39.2339 15.3045 39.4005 15.1515C39.5716 14.9984 39.7883 14.8788 40.0494 14.7933C40.3111 14.7032 40.6333 14.6582 41.0166 14.6582H41.2057C41.5844 14.6582 41.8912 14.7032 42.1253 14.7933C42.3645 14.8788 42.5446 14.9984 42.6661 15.1515C42.7921 15.3045 42.8712 15.4852 42.9028 15.6923C42.9343 15.8949 42.9343 16.1142 42.9028 16.3482L42.6455 18.174L42.6468 18.1733ZM40.652 17.3283C40.868 17.3283 41.0622 17.3032 41.2333 17.2537C41.4044 17.1997 41.569 17.1206 41.7266 17.017L41.8011 16.4826C41.8147 16.3746 41.8237 16.2685 41.8282 16.165C41.8327 16.0614 41.8102 15.9714 41.7606 15.8942C41.7156 15.8177 41.632 15.7566 41.5105 15.7116C41.3889 15.6621 41.2082 15.637 40.9696 15.637C40.7311 15.637 40.5394 15.6621 40.3947 15.7116C40.2507 15.7611 40.1375 15.8331 40.0565 15.9283C39.9799 16.0228 39.9278 16.1379 39.9008 16.273C39.8783 16.408 39.8667 16.5617 39.8667 16.7328C39.8667 16.8093 39.8757 16.8839 39.8938 16.956C39.9163 17.028 39.9548 17.091 40.0089 17.145C40.0674 17.199 40.1484 17.2441 40.2526 17.2801C40.3561 17.3116 40.4893 17.3277 40.6513 17.3277L40.652 17.3283Z" fill="#808080"/>
<path d="M44.504 13.1016L45.2545 13.5749L44.6056 18.1736H43.5239L44.2339 13.1016H44.5046H44.504Z" fill="#808080"/>
<path fill-rule="evenodd" clip-rule="evenodd" d="M12.8416 13.1717C11.7599 14.1627 10.3162 14.7691 8.73356 14.7691C5.37343 14.7691 2.65189 12.045 2.65189 8.68746C2.65189 5.3299 5.37536 2.60322 8.73356 2.60322C12.0918 2.60322 14.8152 5.32733 14.8152 8.68489C14.8152 9.52412 14.6461 10.3228 14.34 11.0476L16.5586 12.4572C17.1104 11.3164 17.4184 10.0373 17.4184 8.68489C17.421 3.8881 13.531 0 8.7342 0C3.93742 0 0.0493164 3.8881 0.0493164 8.68553C0.0493164 13.483 3.93742 17.3711 8.7342 17.3711C10.2474 17.3711 11.6693 16.982 12.9072 16.2997L15.9413 18.2251L17.3316 16.036L12.8416 13.1704V13.1723V13.1717Z" fill="#808080"/>
<path fill-rule="evenodd" clip-rule="evenodd" d="M7.37353 5.51749C9.12529 4.76508 11.1562 5.57473 11.9079 7.3265C12.6603 9.07826 11.8488 11.1091 10.097 11.8615C8.34523 12.614 6.31436 11.8043 5.56259 10.0506C4.81018 8.29884 5.62176 6.26797 7.37353 5.51556V5.51749Z" fill="#808080"/>
<path d="M21.387 5.53906L20.9561 8.62202C20.8442 9.3873 20.7594 10.1648 22.3381 10.1648C23.1156 10.1648 23.7304 9.97893 24.2989 9.59823L24.8655 5.54099H26.8391L25.9748 11.7076H25.4822L24.4217 11.042C23.6565 11.6947 22.9555 11.9551 21.8693 11.9551C19.3651 11.9551 18.7124 10.5731 18.9471 8.87154L19.4159 5.54099H21.3896L21.3876 5.53906H21.387Z" fill="#808080"/>
<path d="M34.8769 11.7059H34.3843L33.3239 11.0403C32.5592 11.693 31.8576 11.9534 30.7715 11.9534C28.2673 11.9534 27.6017 10.5714 27.8493 8.87048L27.9232 8.37788C28.183 6.67692 29.1194 5.29492 31.9065 5.29492H32.2512C35.0126 5.29492 35.5811 6.67499 35.347 8.37788L34.8782 11.7084V11.7065L34.8769 11.7059ZM33.1991 9.59653L33.3342 8.62225C33.4461 7.82161 33.556 7.08142 31.8171 7.08142C30.0782 7.08142 29.8075 7.82097 29.8075 9.0782C29.8075 9.63383 30.0422 10.1644 31.2383 10.1644C32.0158 10.1644 32.6306 9.97852 33.1991 9.59782V9.59589V9.59653Z" fill="#808080"/>
<path d="M38.2453 3.08008L39.6145 3.94439L38.4543 11.7064H36.4807L37.7527 3.08201H38.2453V3.08008Z" fill="#808080"/>
<path d="M41.5355 5.53822L42.8924 6.40253L42.1528 11.7048H40.1792L41.0416 5.53822H41.5361H41.5355ZM41.2268 3.97423C41.3136 3.46941 41.5837 3.04883 42.4101 3.04883H42.5091C43.3355 3.04883 43.5316 3.46748 43.4474 3.97423L43.4223 4.12214C43.3355 4.62696 43.0654 5.04754 42.239 5.04754H42.14C41.3136 5.04754 41.1175 4.62889 41.2017 4.12214L41.2274 3.97423H41.2268Z" fill="#808080"/>
<path d="M46.6024 5.53979H48.5021L48.2551 7.26648H46.3426L46.0719 9.24011C45.9979 9.78352 46.0108 10.1025 47.1201 10.1025C47.5027 10.1025 47.9464 10.0665 48.2802 9.96744L48.0326 11.7681C47.6879 11.8549 47.232 11.8909 46.7754 11.8909C44.5567 11.8909 43.8532 11.0266 44.0751 9.48577L44.9754 3.07227H45.468L46.8249 3.93465L46.603 5.5385V5.54043L46.6024 5.53979Z" fill="#808080"/>
<path d="M56.3329 12.3237C56.086 14.0883 54.9638 15.0368 52.2146 15.0368C51.3883 15.0368 50.3278 14.9249 49.6243 14.7282L49.8841 12.8793C50.5876 13.1269 51.6487 13.2491 52.4114 13.2491C54.1632 13.2491 54.286 12.8304 54.3979 12.078L54.4461 11.7333C53.9535 11.8812 53.4236 11.9552 52.8551 11.9552C50.0931 11.9552 49.5246 10.5732 49.7593 8.87156L50.2281 5.54102H52.2018L51.7709 8.62397C51.659 9.42526 51.5619 10.1667 53.2268 10.1667C53.7574 10.1667 54.2262 10.1056 54.6931 9.96995L55.3098 5.54294H57.2834L56.3349 12.3262L56.3329 12.3224V12.3237Z" fill="#808080"/>
</g>
<defs>
<clipPath id="clip0_16038_4272">
<rect width="57.2347" height="20" fill="white" transform="translate(0.0493164)"/>
</clipPath>
</defs>
</svg>
